# xmcd
#
# Track frame offsets:
#	150
#	14942
#	26665
#	42107
#	58690
#	75318
#	88580
#	103989
#	118092
#	131067
#	143787
#	157760
#	174040
#	187920
#	203473
#	217976
#
# Disc length: 3049 seconds
#
# Revision: 1
# Processed by: cddbd v1.4PL0 Copyright (c) Steve Scherf et al.
# Submitted via: audiograbber 1.81.03
#
DISCID=cd0be710
DTITLE=Dave Sheriff - Singalongadance
DYEAR=2000
DGENRE=Country
TTITLE0=Blue Suede Shoes
TTITLE1=Hurt ~ Commitment
TTITLE2=Working Man ~ San Antone 
TTITLE3=Wind Beneath My Wings ~ Peace Train
TTITLE4=Answer To Everything ~ Quando
TTITLE5=Cry ~ Cha Cha Loco
TTITLE6=The Story Of My Life ~ Hams Jam and Once Upon The Time
TTITLE7=Blue Bayou
TTITLE8=Only 16 ~ Chruisin´
TTITLE9=Rave On ~ Kick´n Swing
TTITLE10=I Believe ~ Believe
TTITLE11=Like I´ve Never Been Gone ~ Por Te Sere
TTITLE12=Spanish Eyes
TTITLE13=Don´t Forget To Remember Me ~ The Sway
TTITLE14=Too Soon To Know ~ Ruby Waltz
TTITLE15=Singin´The Blues ~ Poor Boy Shuffle
EXTD=
EXTT0=
EXTT1=
EXTT2=
EXTT3=
EXTT4=
EXTT5=
EXTT6=
EXTT7=
EXTT8=
EXTT9=
EXTT10=
EXTT11=
EXTT12=
EXTT13=
EXTT14=
EXTT15=
PLAYORDER=
